<svg width="14.970703" height="11.790222" viewBox="0 0 14.9707 11.7902" fill="none" xmlns="http://www.w3.org/2000/svg" xmlns:xlink="http://www.w3.org/1999/xlink">
	<desc>
			Created with Pixso.
	</desc>
	<defs/>
	<path id="Vector" d="M5.03 0.03C4.46 0.18 4.01 0.7 4.01 1.22C4.01 1.31 3.87 1.32 2.62 1.34C1.28 1.36 1.21 1.36 0.95 1.5C0.62 1.67 0.31 1.97 0.13 2.32L0 2.59L0 6.57L0 10.55L0.13 10.82C0.32 11.19 0.63 11.49 0.99 11.65L1.28 11.79L7.47 11.79L13.65 11.79L13.95 11.64C14.34 11.47 14.68 11.11 14.84 10.68C14.97 10.35 14.97 10.28 14.97 6.58C14.97 3.39 14.95 2.77 14.88 2.52C14.77 2.14 14.38 1.7 13.99 1.5C13.72 1.36 13.66 1.36 12.32 1.34L10.93 1.31L10.89 1.1C10.81 0.67 10.58 0.34 10.19 0.14C9.96 0.01 9.89 0.01 7.58 0C6.28 -0.01 5.13 0.01 5.03 0.03ZM9.96 0.88C10.1 1 10.13 1.07 10.16 1.47C10.18 1.82 10.22 1.94 10.31 2.01C10.4 2.07 10.73 2.09 11.94 2.09C13.34 2.09 13.48 2.1 13.71 2.21C13.86 2.28 13.99 2.4 14.08 2.55L14.2 2.78L14.19 6.62C14.17 10.39 14.17 10.46 14.05 10.62C13.99 10.71 13.86 10.84 13.77 10.9C13.61 11.02 13.58 11.02 7.47 11.02C1.35 11.02 1.32 11.02 1.16 10.9C1.07 10.84 0.94 10.71 0.88 10.62C0.76 10.46 0.76 10.41 0.76 6.57C0.76 2.73 0.76 2.68 0.88 2.52C1.18 2.12 1.16 2.12 2.97 2.09C4.83 2.05 4.77 2.07 4.77 1.55C4.77 1.21 4.85 0.97 5.02 0.85C5.14 0.75 5.36 0.74 7.48 0.74L9.8 0.74L9.96 0.88Z" fill="#000000" fill-opacity="1.000000" fill-rule="nonzero"/>
	<path id="Vector" d="M12.35 3.1C12.09 3.16 11.86 3.45 11.86 3.71C11.86 4.26 12.38 4.59 12.86 4.34C13.1 4.21 13.21 4.03 13.21 3.72C13.21 3.25 12.82 2.97 12.35 3.1Z" fill="#000000" fill-opacity="1.000000" fill-rule="nonzero"/>
	<path id="Vector" d="M6.59 3.17C5.26 3.55 4.32 4.55 4.03 5.9C3.68 7.55 4.74 9.38 6.35 9.89C6.89 10.06 7.73 10.1 8.25 9.97C9.59 9.66 10.61 8.62 10.89 7.26C11.06 6.48 10.96 5.76 10.58 4.98C10.19 4.2 9.45 3.55 8.62 3.26C8.14 3.08 7.06 3.04 6.59 3.17ZM8.34 4C9.63 4.43 10.44 5.84 10.14 7.14C9.71 8.99 7.69 9.86 6.06 8.91C4.01 7.71 4.47 4.57 6.76 3.95C7.22 3.82 7.86 3.85 8.34 4Z" fill="#000000" fill-opacity="1.000000" fill-rule="nonzero"/>
</svg>
